<svg xmlns="http://www.w3.org/2000/svg" xmlns:xlink="http://www.w3.org/1999/xlink" width="24" height="24" viewBox="0 0 24 24">
    <defs>
        <path id="a" d="M15 17.002v-.983c0-.623-.368-1.19-1.104-1.702-.624-.432-1.44-.776-2.448-1.032-.896-.24-1.712-.36-2.448-.36s-1.552.12-2.448.36c-1.008.256-1.824.6-2.448 1.032C3.368 14.828 3 15.396 3 16.019v.983h12zM9 5.012c-.528 0-1.024.136-1.488.408-.464.271-.832.64-1.104 1.103A2.89 2.89 0 0 0 6 8.01c0 .527.136 1.023.408 1.486.272.464.64.832 1.104 1.104.464.271.96.407 1.488.407s1.024-.136 1.488-.407c.464-.272.832-.64 1.104-1.104A2.89 2.89 0 0 0 12 8.01a2.89 2.89 0 0 0-.408-1.487 3.042 3.042 0 0 0-1.104-1.103A2.896 2.896 0 0 0 9 5.012zm6.984-2.998c.544 0 1.016.2 1.416.6.4.4.6.871.6 1.415v13.957c0 .543-.2 1.015-.6 1.414-.4.4-.872.6-1.416.6H2.016c-.56 0-1.036-.2-1.428-.6A1.954 1.954 0 0 1 0 17.986V4.029c0-.544.196-1.015.588-1.415.392-.4.868-.6 1.428-.6H3V0h2.016v2.014h7.968V0H15v2.014h.984z"/>
    </defs>
    <g fill="none" fill-rule="evenodd" transform="translate(3 2)">
        <mask id="b" fill="#fff">
            <use xlink:href="#a"/>
        </mask>
        <use fill="#B9C0C7" xlink:href="#a"/>
        <g fill="#0067B1" mask="url(#b)">
            <path d="M-2.842-.952h23v23h-23z"/>
        </g>
    </g>
</svg>
