<?xml version="1.0" encoding="UTF-8"?>
<svg width="18px" height="17px" viewBox="0 0 18 17" version="1.1" xmlns="http://www.w3.org/2000/svg" xmlns:xlink="http://www.w3.org/1999/xlink">
    <!-- Generator: Sketch 47.1 (45422) - http://www.bohemiancoding.com/sketch -->
    <title>sme / Icons / Nav / Active / Download / CSV</title>
    <desc>Created with Sketch.</desc>
    <defs></defs>
    <g id="Admin" stroke="none" stroke-width="1" fill="none" fill-rule="evenodd">
        <g id="4.0-Admin---Uploads-1.2" transform="translate(-686.000000, -483.000000)" fill="#000000">
            <g id="main" transform="translate(206.000000, 149.000000)">
                <g id="file-upload">
                    <g id="sme-/-Elements-/-Inputs-/-Active-Copy-3" transform="translate(20.000000, 333.000000)">
                        <g id="Group-4" transform="translate(460.000000, 0.000000)">
                            <g id="sme-/-Icons-/-Nav-/-Active-/-Download-/-CSV" transform="translate(0.000000, 1.000000)">
                                <g id="noun_374138_cc" transform="translate(0.947368, 0.000000)">
                                    <g id="Group" fill-rule="nonzero">
                                        <path d="M0.331768421,9.97696739 L2.45387368,9.97696739 L2.45538947,16.3680435 C2.45387368,16.5127283 2.57456842,16.6304348 2.72444211,16.6304348 L10.4210526,16.6304348 L10.4210526,15.9715 L3.24852632,15.9715 C3.19376842,15.9715 3.14867368,15.9282609 3.14867368,15.8741196 L3.14867368,9.97696739 L10.9379368,9.97696739 C11.1200211,9.97696739 11.2678105,9.83542391 11.2678105,9.65636957 L11.2678105,5.10184783 C11.2678105,4.92223913 11.1200211,4.78032609 10.9379368,4.78032609 L3.14867368,4.78032609 L3.14867368,0.75723913 C3.14867368,0.703097826 3.19376842,0.659858696 3.24852632,0.659858696 L11.0006526,0.659858696 C11.0561684,0.659858696 11.1005053,0.703097826 11.1005053,0.75723913 L11.1018316,3.07626087 C11.1005053,3.22242391 11.2206316,3.33957609 11.3697474,3.33957609 L13.7656421,3.33957609 C13.8211579,3.33957609 13.8654947,3.38355435 13.8654947,3.43769565 L13.8654947,7.81593478 C13.8654947,7.82942391 13.8696632,7.84106522 13.8732632,7.85326087 L14.5405895,7.85326087 C14.5445684,7.84106522 14.5481684,7.82942391 14.5481684,7.81593478 L14.5445684,2.90718478 C14.5453263,2.83475 14.5023158,2.7338587 14.4502105,2.68248913 L11.7915158,0.0927608696 C11.7388421,0.0421304348 11.6353895,0 11.5613053,0 L2.72444211,0 C2.57456842,0 2.45387368,0.117891304 2.45538947,0.263315217 L2.45538947,4.78032609 L0.328926316,4.78032609 C0.146652632,4.78032609 0.000568421053,4.92223913 0.00151578947,5.10184783 L0,9.65636957 C0.000757894737,9.8356087 0.149115789,9.97696739 0.331768421,9.97696739 Z M7.96187368,5.84430435 L8.29913684,7.15127174 C8.32623158,7.25530435 8.35427368,7.36580435 8.38250526,7.48018478 C8.40865263,7.37578261 8.43593684,7.26879348 8.46511579,7.16254348 L8.81848421,5.84448913 L9.75277895,5.84448913 L8.80863158,8.96084783 L7.85084211,8.96084783 L6.95216842,5.84430435 L7.96187368,5.84430435 Z M5.3136,7.74276087 C4.78837895,7.54227174 4.52178947,7.21945652 4.52178947,6.78355435 C4.52178947,6.20241304 4.97955789,5.79663043 5.63362105,5.79663043 C5.93336842,5.79663043 6.26873684,5.88440217 6.44456842,5.97143478 L6.55730526,6.02723913 L6.34395789,6.77875 L6.17362105,6.68894565 C6.09044211,6.64515217 5.87747368,6.57548913 5.66071579,6.57548913 C5.48033684,6.57548913 5.46631579,6.69411957 5.46631579,6.73015217 C5.46631579,6.79094565 5.46631579,6.83436957 5.82271579,6.98311957 C6.33467368,7.19063043 6.57341053,7.49792391 6.57341053,7.94990217 C6.57341053,8.41573913 6.26589474,8.96084783 5.39791579,8.96084783 C5.07505263,8.96084783 4.66806316,8.85016304 4.5036,8.75038043 L4.41663158,8.69753261 L4.54755789,7.92070652 L4.74063158,8.02954348 C4.86947368,8.10142391 5.16941053,8.1823587 5.39374737,8.1823587 C5.54778947,8.1823587 5.64082105,8.11195652 5.64082105,7.99461957 C5.64082105,7.94269565 5.64082105,7.87192391 5.3136,7.74276087 Z M3.09713684,5.79663043 C3.43648421,5.79663043 3.69132632,5.8703587 3.81713684,5.93946739 L3.91774737,5.99453261 L3.72789474,6.78004348 L3.55812632,6.70465217 C3.42454737,6.64496739 3.27903158,6.61503261 3.12423158,6.61503261 C2.69128421,6.61503261 2.44288421,6.89534783 2.44288421,7.38483696 C2.44288421,7.86601087 2.69261053,8.14244565 3.1284,8.14244565 C3.29115789,8.14244565 3.46869474,8.10308696 3.5604,8.06428261 L3.73850526,7.9888913 L3.88098947,8.772 L3.78416842,8.82263043 C3.65854737,8.88933696 3.39707368,8.96084783 3.03877895,8.96084783 C2.11282105,8.96084783 1.51484211,8.3566087 1.51484211,7.42216304 C1.51503158,6.44965217 2.15128421,5.79663043 3.09713684,5.79663043 Z" id="Shape"></path>
                                        <path d="M16.8866526,13.1646522 L15.2031789,13.1646522 L15.2031789,10.138837 C15.2031789,10.0490326 15.1289053,9.97641304 15.0366316,9.97641304 L13.3838526,9.97641304 C13.2915789,9.97641304 13.2173053,10.0490326 13.2173053,10.138837 L13.2173053,13.1646522 L11.5353474,13.1646522 C11.4756632,13.1646522 11.4209053,13.1956957 11.3909684,13.2457717 C11.3612211,13.295663 11.3612211,13.3566413 11.3902105,13.4074565 L14.0650105,16.5491304 C14.0945684,16.5993913 14.1500842,16.6304348 14.2095789,16.6304348 C14.2692632,16.6304348 14.3247789,16.5993913 14.3539579,16.5493152 L17.0310316,13.4076413 C17.0600211,13.3575652 17.0600211,13.2958478 17.0302737,13.2459565 C17.0005263,13.1956957 16.9455789,13.1646522 16.8866526,13.1646522 Z" id="Shape"></path>
                                    </g>
                                </g>
                            </g>
                        </g>
                    </g>
                </g>
            </g>
        </g>
    </g>
</svg>