<svg xmlns="http://www.w3.org/2000/svg" width="69" height="64" viewBox="0 0 69 64">
    <path fill="#32325D" fill-rule="nonzero" d="M10.419 0a.745.745 0 0 0-.652.395L.093 18.255a.762.762 0 0 0-.093.35v3.72a7.466 7.466 0 0 0 5.21 7.117v33.814c0 .41.334.744.743.744h56.558c.41 0 .744-.334.744-.744V29.442a7.466 7.466 0 0 0 5.21-7.117v-3.72a.771.771 0 0 0-.093-.35L58.697.396a.745.745 0 0 0-.65-.395H10.418zm.441 1.488h8.21L13.603 17.86H2l8.86-16.372zm9.768 0h8.302L26.883 17.86h-11.72l5.465-16.372zm9.79 0h7.628l2.047 16.372H28.372l2.046-16.372zm9.116 0h8.303l5.465 16.372H41.58L39.534 1.488zm9.86 0h8.21l8.86 16.372H54.86L49.395 1.488zM1.489 19.348h11.907v2.977a5.924 5.924 0 0 1-5.953 5.954 5.924 5.924 0 0 1-5.954-5.954V19.35zm13.395 0H26.79v2.977a5.924 5.924 0 0 1-5.953 5.954 5.924 5.924 0 0 1-5.954-5.954V19.35zm13.396 0h11.907v2.977a5.924 5.924 0 0 1-5.954 5.954 5.924 5.924 0 0 1-5.953-5.954V19.35zm13.395 0h11.907v2.977a5.924 5.924 0 0 1-5.954 5.954 5.924 5.924 0 0 1-5.953-5.954V19.35zm13.395 0h11.907v2.977a5.924 5.924 0 0 1-5.953 5.954 5.924 5.924 0 0 1-5.954-5.954V19.35zm-40.93 6.21a7.42 7.42 0 0 0 6.698 4.21 7.42 7.42 0 0 0 6.698-4.21 7.42 7.42 0 0 0 6.697 4.21 7.42 7.42 0 0 0 6.698-4.21 7.42 7.42 0 0 0 6.697 4.21 7.42 7.42 0 0 0 6.698-4.21 7.42 7.42 0 0 0 6.698 4.21c.25 0 .5 0 .744-.024v32.767H30.51v-23.07a.744.744 0 0 0-.744-.744H14.883a.744.744 0 0 0-.744.744v23.07H6.697V29.744c.245.023.495.023.745.023a7.42 7.42 0 0 0 6.697-4.209zm23.07 13.14a.744.744 0 0 0-.744.743V49.86c0 .41.334.744.744.744H53.58c.41 0 .744-.334.744-.744V39.441a.744.744 0 0 0-.744-.744H37.209zm-21.581 1.488h13.395V62.51H15.628V40.186zm22.325 0h14.884v8.93H37.953v-8.93z"/>
</svg>
