<svg xmlns="http://www.w3.org/2000/svg" xmlns:xlink="http://www.w3.org/1999/xlink" width="24" height="24" viewBox="0 0 24 24">
    <defs>
        <path id="a" d="M0 .065h16.753v21.84H0z"/>
    </defs>
    <g fill="none" fill-rule="evenodd">
        <path fill-rule="nonzero" d="M0 0h24v24H0z"/>
        <g transform="translate(4 1.03)">
            <mask id="b" fill="#fff">
                <use xlink:href="#a"/>
            </mask>
            <path fill="#EF3E42" d="M14.973 4.692V20.54c0 .364-.06.423-.428.423H2.215c-.372 0-.423-.051-.423-.424V4.692h13.181zm.841-1.475v.1c-.001.38-.045.423-.419.423H1.378c-.39 0-.434-.045-.435-.435 0-.286.003-.45.073-.521.07-.07.233-.074.517-.074h13.804c.455 0 .477.023.477.487v.02zm-8.647-1.93c.005-.183.096-.268.285-.268h.632c.408 0 .816-.001 1.224.002.203.002.282.081.291.292.004.092.003.186.002.277l-.001.078c0 .024-.003.049-.005.077l-.001.009H7.166v-.12c-.001-.12-.002-.233.001-.347zM16.753 3.2v-.095c-.002-.87-.466-1.332-1.343-1.332h-4.865l.002-.138c0-.121.002-.235-.003-.347-.03-.727-.493-1.19-1.206-1.209a36.232 36.232 0 0 0-1.93 0C6.69.098 6.223.586 6.22 1.322v.45H3.99l-.827-.001c-.642-.002-1.306-.003-1.958.004-.664.007-1.13.444-1.19 1.113-.006.075-.006.15-.007.223 0 .061 0 .122-.004.182-.042.66.242 1.114.842 1.353V20.54c-.001.063-.002.129.003.194.045.567.318.937.81 1.1.188.063.404.063.577.063 3.66.003 7.318.003 10.977.002h1.306l.077.003.08.002a.504.504 0 0 0 .14-.017l.111-.03c.17-.048.347-.096.493-.192.337-.22.493-.57.493-1.098-.002-1.655-.002-3.31-.002-4.965v-3.365c0-2.42.001-4.92-.003-7.38 0-.15.025-.229.176-.298.414-.19.637-.535.664-1.025.006-.112.005-.226.005-.336z" mask="url(#b)"/>
        </g>
        <path fill="#EF3E42" d="M8.513 12.647c0 2.622 0 4.824-.004 7.046 0 .55.254.673.468.68h.02c.12 0 .218-.036.293-.109.112-.108.17-.294.17-.551V8.873c0-.346 0-.692-.002-1.038 0-.236-.085-.392-.257-.478-.157-.078-.315-.076-.445.004-.16.099-.25.3-.25.55v.23c.003 1.502.006 3.004.007 4.506M12.078 20.26a.406.406 0 0 0 .312.11c.307-.009.457-.224.457-.657V7.956c0-.26-.056-.447-.167-.554a.414.414 0 0 0-.312-.109c-.21.006-.463.125-.463.657v11.757c0 .255.059.441.173.552M15.754 20.388a.41.41 0 0 0 .316-.109c.11-.107.164-.286.164-.548V7.977c0-.275-.047-.642-.455-.654a.428.428 0 0 0-.319.11c-.11.107-.163.285-.163.547v11.753c0 .431.15.646.457.655"/>
    </g>
</svg>
