<svg xmlns="http://www.w3.org/2000/svg" width="24" height="24" viewBox="0 0 24 24">
    <g fill="none" fill-rule="evenodd">
        <path d="M24 24H0V0h24z"/>
        <g fill="#0067b1" fill-rule="nonzero">
            <path d="M18.092 3.605H14.71A2.946 2.946 0 0 0 11.788 1a2.946 2.946 0 0 0-2.922 2.605H5.483A2.486 2.486 0 0 0 3 6.09v.128c0 1.046.651 1.942 1.57 2.307V20.26a2.486 2.486 0 0 0 2.482 2.485h9.471a2.486 2.486 0 0 0 2.483-2.485V8.524a2.487 2.487 0 0 0 1.57-2.307v-.128a2.486 2.486 0 0 0-2.484-2.484zm-6.304-1.427c.857 0 1.573.615 1.731 1.427h-3.463a1.767 1.767 0 0 1 1.732-1.427zm6.04 18.081c0 .72-.585 1.307-1.305 1.307H7.052c-.72 0-1.305-.586-1.305-1.307V8.701h12.081v11.558zm1.57-14.042c0 .72-.586 1.306-1.306 1.306H5.482c-.719 0-1.304-.586-1.304-1.306v-.128c0-.72.585-1.306 1.305-1.306h12.61c.719 0 1.305.586 1.305 1.306v.128z"/>
            <path d="M8.633 20.04a.575.575 0 0 0 .563-.586v-6.602a.575.575 0 0 0-.563-.586.575.575 0 0 0-.563.586v6.602c0 .323.252.586.563.586zM11.788 20.04a.575.575 0 0 0 .563-.586v-6.602a.575.575 0 0 0-.563-.586.575.575 0 0 0-.564.586v6.602c0 .323.252.586.564.586zM14.942 20.04a.575.575 0 0 0 .563-.586v-6.602a.575.575 0 0 0-.563-.586.575.575 0 0 0-.563.586v6.602c0 .323.252.586.563.586z"/>
        </g>
    </g>
</svg>
