<svg xmlns="http://www.w3.org/2000/svg" width="151" height="175" viewBox="0 0 151 175">
    <path fill="#F62A45" fill-rule="nonzero" d="M136.829 174.856H23.293c-7.181 0-13.071-5.637-13.478-12.718H3a3 3 0 1 1 0-6h6.793v-9.928H3a3 3 0 1 1 0-6h6.793v-9.927H3a3 3 0 1 1 0-6h6.793v-9.928H3a3 3 0 1 1 0-6h6.793v-9.927H3a3 3 0 1 1 0-6h6.793V82.5H3a3 3 0 1 1 0-6h6.793v-9.927H3a3 3 0 1 1 0-6h6.793v-9.927H3a3 3 0 1 1 0-6h6.793V34.72H3a3 3 0 1 1 0-6h6.793v-9.927H3a3 3 0 1 1 0-6h6.815C10.222 5.712 16.111.075 23.293.075h113.536c7.444 0 13.5 6.056 13.5 13.5v147.78c0 7.445-6.056 13.501-13.5 13.501zM15.833 162.138c.392 3.77 3.588 6.718 7.459 6.718h113.536c4.136 0 7.5-3.364 7.5-7.5V13.576c0-4.136-3.364-7.5-7.5-7.5H23.293c-3.872 0-7.067 2.948-7.459 6.718h3.681a3 3 0 1 1 0 6h-3.722v9.927h3.722a3 3 0 1 1 0 6h-3.722v9.928h3.722a3 3 0 1 1 0 6h-3.722v9.927h3.722a3 3 0 1 1 0 6h-3.722v9.927h3.722a3 3 0 1 1 0 6h-3.722v9.928h3.722a3 3 0 1 1 0 6h-3.722v9.927h3.722a3 3 0 1 1 0 6h-3.722v9.928h3.722a3 3 0 1 1 0 6h-3.722v9.927h3.722a3 3 0 1 1 0 6h-3.722v9.928h3.722a3 3 0 1 1 0 6h-3.682v-.003zm19.806-29.035a2.997 2.997 0 0 1-2.127-.885l-5.522-5.556a3 3 0 1 1 4.255-4.23l3.188 3.207 9.283-11.251a3.001 3.001 0 0 1 4.628 3.819l-11.39 13.806a3 3 0 0 1-2.175 1.088l-.14.002zm94.598-6.902H64.963a3 3 0 1 1 0-6h65.274a3 3 0 1 1 0 6zm-94.598-25.215a3 3 0 0 1-2.128-.885l-5.522-5.557a3 3 0 0 1 4.256-4.23l3.188 3.208 9.282-11.252a3.001 3.001 0 0 1 4.628 3.819l-11.39 13.807a3 3 0 0 1-2.175 1.088l-.139.002zm94.598-6.903H64.963a3 3 0 1 1 0-6h65.274a3 3 0 1 1 0 6zM35.639 68.868a3 3 0 0 1-2.128-.885l-5.522-5.557a3 3 0 0 1 4.256-4.23l3.188 3.208 9.282-11.251a3.001 3.001 0 0 1 4.628 3.819l-11.39 13.806a3 3 0 0 1-2.175 1.088l-.139.002zm94.598-6.904H64.963a3 3 0 1 1 0-6h65.274a3 3 0 1 1 0 6zM35.639 36.75a3 3 0 0 1-2.128-.885l-5.522-5.557a3 3 0 0 1 4.256-4.23l3.188 3.208 9.282-11.251a3.001 3.001 0 0 1 4.628 3.819L37.953 35.66a3 3 0 0 1-2.175 1.088l-.139.002zm94.598-6.903H64.963a3 3 0 1 1 0-6h65.274a3 3 0 1 1 0 6z"/>
</svg>
