<svg xmlns="http://www.w3.org/2000/svg" width="24" height="24" viewBox="0 0 24 24">
    <g fill="#000" fill-rule="nonzero">
        <path d="M23.389 15.482a.611.611 0 0 0-.61.61v2.335a2.447 2.447 0 0 1-2.445 2.444H3.666a2.447 2.447 0 0 1-2.444-2.444v-2.334a.611.611 0 0 0-1.222 0v2.334a3.67 3.67 0 0 0 3.666 3.666h16.668A3.67 3.67 0 0 0 24 18.427v-2.334a.611.611 0 0 0-.611-.611z"/>
        <path d="M19.68 17.89H4.32a.611.611 0 0 0 0 1.221h15.36a.61.61 0 1 0 0-1.222zM18.184 9.294a.611.611 0 0 0-.863-.05l-4.71 4.209V1.612a.611.611 0 0 0-1.222 0v11.84l-4.71-4.207a.611.611 0 0 0-.814.911l5.117 4.572a1.523 1.523 0 0 0 2.035 0l5.118-4.572a.611.611 0 0 0 .049-.862z"/>
    </g>
</svg>
