<svg xmlns="http://www.w3.org/2000/svg" width="24" height="24" viewBox="0 0 24 24">
    <g fill="#EF3E42" fill-rule="nonzero">
        <path d="M21 9.112a.676.676 0 0 0-.25-.547 1.76 1.76 0 0 0-.304-.434L12.97.56a4.232 4.232 0 0 0-.376-.226A.648.648 0 0 0 12 0a.77.77 0 0 0-.219.04 1.807 1.807 0 0 0-.335-.04H6.462C4.523 0 3 1.542 3 3.505v16.821c0 1.963 1.523 3.505 3.462 3.505h11.076c1.939 0 3.462-1.542 3.462-3.505V9.673c0-.136-.01-.271-.028-.404.011-.052.028-.1.028-.157zm-2.215-.701h-4.016c-1.107 0-2.077-.981-2.077-2.103V2.243l6.093 6.168zm-1.247 14.018H6.462c-1.108 0-2.077-.981-2.077-2.102V3.505c0-1.122.969-2.103 2.077-2.103h4.846v4.906c0 1.963 1.523 3.505 3.461 3.505h4.846v10.514c0 1.121-.969 2.102-2.077 2.102z"/>
        <path d="M14.706 13.395a.668.668 0 0 0-.976 0l-1.603 1.624-1.604-1.624a.668.668 0 0 0-.976 0 .689.689 0 0 0 0 .988l1.604 1.624-1.604 1.624a.689.689 0 0 0 0 .988c.14.142.418.142.558.142.14 0 .418-.142.418-.142l1.604-1.623 1.603 1.623c.14.142.418.142.558.142.14 0 .418-.142.418-.142a.689.689 0 0 0 0-.988l-1.603-1.624 1.603-1.624a.688.688 0 0 0 0-.988z"/>
    </g>
</svg>
