<svg xmlns="http://www.w3.org/2000/svg" width="18" height="20" viewBox="0 0 18 20">
    <path fill="#646C77" fill-rule="nonzero" d="M8 2.074V1a1 1 0 1 1 2 0v1.074c1.605.245 2.87 1.086 3.8 2.326.655.873 1.016 1.74 1.17 2.357l.03.12V11c0 .469.338.938 1.14 1.607.127.105.694.563.54.439.231.187.39.322.538.461.498.471.782.91.782 1.493 0 1.552-.448 2-2 2H2c-.767 0-1.354-.229-1.707-.758C.037 15.858 0 15.581 0 15c0-.557.195-.778.816-1.312.106-.091.595-.5.49-.412.208-.174.366-.311.518-.45C2.607 12.107 3 11.506 3 11V6.877l.03-.12c.154-.618.515-1.484 1.17-2.357.93-1.24 2.195-2.08 3.8-2.326zM6 17h2c0 .109.039.342.144.553.15.297.374.447.856.447s.707-.15.856-.447A1.41 1.41 0 0 0 10 17h2c0 .391-.086.908-.356 1.447C11.168 19.4 10.268 20 9 20c-1.268 0-2.168-.6-2.644-1.553A3.277 3.277 0 0 1 6 17zm9.845-2.039a7.537 7.537 0 0 0-.424-.362c.168.137-.42-.339-.561-.456C13.637 13.124 13 12.24 13 11V7.14a5.4 5.4 0 0 0-.8-1.54C11.44 4.587 10.413 4 9 4c-1.413 0-2.44.587-3.2 1.6A5.4 5.4 0 0 0 5 7.14V11c0 1.222-.664 2.236-1.824 3.3a18.21 18.21 0 0 1-.584.508l-.23.192h13.523a2.894 2.894 0 0 0-.04-.039z"/>
</svg>
