<svg xmlns="http://www.w3.org/2000/svg" width="86" height="28" viewBox="0 0 86 28">
    <g fill="none" fill-rule="evenodd">
        <path fill="#EF3E42" d="M60.714 13.96L73.29 26.43l12.569-12.47-12.57-12.47z"/>
        <path fill="#0068B3" d="M22.694 4.602c.326-2.354 2.196-4.3 4.092-4.3 1.904 0 3.183 1.946 2.853 4.3l-1.352 9.74h3.77l1.388-9.74c.326-2.354 2.192-4.3 4.092-4.3 1.9 0 3.179 1.946 2.849 4.3L37.759 23.32c-.33 2.357-2.193 4.306-4.096 4.306-1.9 0-3.18-1.95-2.85-4.306l.838-6.071h-3.803l-.842 6.07c-.328 2.358-2.192 4.307-4.09 4.307h-3.44l3.218-23.024zM51.75 4.33c-1.207 0-2.3 1.229-2.56 2.72l-.438 2.672c-.258 1.497.587 2.721 1.791 2.721 1.207 0 2.336-1.224 2.6-2.721l.434-2.672c.253-1.491-.617-2.72-1.827-2.72zm-1.464 9.926c-1.205 0-2.338 1.224-2.56 2.722l-.548 3.893c-.216 1.493.583 2.721 1.792 2.721 1.206 0 2.377-1.228 2.599-2.721l.546-3.893c.222-1.498-.623-2.722-1.83-2.722zm9.399-6.12c-.295 1.816-1.285 3.582-3.035 5.212 1.204 1.271 1.715 2.95 1.465 4.578l-.261 1.674c-.656 4.311-5.155 8.027-9.983 8.027h-7.636l2.811-19.35C43.675 4.018 48.202.3 53.062.3c4.941 0 7.319 3.395 6.804 6.662l-.181 1.175zM11.11 4.33c-1.059 0-2.047 1.042-2.23 2.362l-.799 5.813c-.18 1.316.515 2.36 1.57 2.36 1.057 0 2.051-1.044 2.231-2.36l.802-5.813c.189-1.32-.51-2.362-1.574-2.362zM0 27.627L2.774 8.32C3.397 4.061 7.928.346 12.792.346c4.941 0 7.275 3.397 6.804 6.66l-.407 2.808c-.324 2.354-2.078 4.628-5.185 6.299l3.177 5.35c.364.583.517 1.492.364 2.448-.33 2.039-1.863 3.716-3.541 3.716-.918 0-1.65-.499-2.088-1.267L7.24 18.332l-.81 5.621c-.289 2.04-1.826 3.674-3.467 3.674H0z"/>
    </g>
</svg>
