<svg xmlns="http://www.w3.org/2000/svg" width="24" height="24" viewBox="0 0 24 24">
    <path fill="#6B7C93" fill-rule="nonzero" d="M23 11.434a.95.95 0 0 0-.23-.582l-4.512-4.795c-.306-.274-.892-.388-1.234-.07-.337.312-.326.92.009 1.234l3.173 3.367H5.795a.846.846 0 0 0 0 1.692h14.41l-3.172 3.367c-.289.29-.343.918-.009 1.234.333.316.94.215 1.234-.07l4.513-4.795a.817.817 0 0 0 .229-.582zM8.897 1.846C8.893 1.4 8.487.991 8.041 1H1.844C1.402 1 1 1.403 1 1.846v19.18c0 .443.402.846.844.846H8.04c.447.006.856-.4.856-.846 0-.448-.41-.853-.856-.847H2.688V2.692h5.353c.451.01.86-.394.856-.846z"/>
</svg>
