<svg xmlns="http://www.w3.org/2000/svg" width="18" height="18" viewBox="0 0 18 18">
    <path fill="#0067B1" fill-rule="nonzero" d="M16.883 7.294l-1.443-.32a6.504 6.504 0 0 0-.43-1.035l.782-1.3c.292-.468.439-1.153 0-1.593l-.796-.795a1.099 1.099 0 0 0-.794-.305c-.3 0-.606.098-.833.256l-1.267.807a6.714 6.714 0 0 0-1.028-.432l-.324-1.461C10.653.579 10.184 0 9.563 0H8.438c-.622 0-1.002.589-1.125 1.125L6.951 2.57a6.67 6.67 0 0 0-1.095.46L4.56 2.203a1.501 1.501 0 0 0-.835-.257c-.29 0-.579.09-.795.306l-.794.795c-.44.44-.292 1.125 0 1.592l.82 1.37c-.153.31-.29.63-.395.966l-1.444.32C.58 7.392 0 7.861 0 8.482v1.126c0 .621.589 1 1.125 1.125l1.461.364c.102.31.227.609.37.897l-.821 1.37c-.292.466-.44 1.152 0 1.59l.795.797c.215.214.503.306.794.306.301 0 .606-.098.834-.257l1.301-.83c.35.186.72.344 1.103.465l.36 1.44C7.443 17.41 7.824 18 8.445 18h1.125c.621 0 1.09-.58 1.187-1.117l.325-1.465a6.712 6.712 0 0 0 1.017-.427l1.269.808c.228.159.532.257.833.257.292 0 .58-.092.794-.306l.796-.796c.439-.44.292-1.125 0-1.59l-.782-1.303a6.98 6.98 0 0 0 .404-.965l1.461-.364c.536-.123 1.125-.504 1.125-1.125V8.482c0-.622-.58-1.09-1.116-1.187zM17 9.6c0 .045-.165.186-.438.25l-1.444.36-.476.119-.152.467c-.091.274-.207.552-.346.825l-.224.439.254.42.781 1.303c.141.225.156.44.126.47l-.788.787c-.038.038-.127.042-.154.042a.599.599 0 0 1-.318-.096l-.014-.009-.015-.01-1.252-.798-.433-.276-.455.236c-.285.149-.577.27-.869.365l-.484.157-.11.496-.32 1.447-.007.035c-.034.184-.201.371-.298.371h-1.11c-.045 0-.187-.164-.25-.438L7.85 15.14l-.12-.482-.475-.15a5.683 5.683 0 0 1-.942-.398l-.456-.24-.436.277-1.286.819-.014.01-.014.01a.599.599 0 0 1-.318.095c-.027 0-.117-.004-.155-.044l-.786-.784c-.031-.032-.016-.246.134-.486l.812-1.354.25-.416-.216-.437a5.6 5.6 0 0 1-.316-.764l-.153-.468-.477-.12-1.46-.364c-.258-.06-.421-.2-.421-.245V8.49c0-.097.186-.264.37-.299l.019-.002.018-.004 1.426-.316.501-.111.154-.49c.083-.26.194-.531.34-.826l.217-.436-.251-.417L2.97 4.22c-.14-.224-.156-.44-.125-.471l.786-.785c.038-.038.12-.042.155-.042.11 0 .234.037.318.094l.014.01.015.009 1.282.817.435.276.457-.24c.303-.16.618-.294.938-.395l.471-.15.12-.481.36-1.442C8.258 1.164 8.4 1 8.443 1h1.111c.097 0 .264.187.297.37l.004.019.004.017.32 1.443.11.496.485.157c.295.095.59.22.88.37l.455.235.432-.275 1.25-.797.015-.01.014-.01a.597.597 0 0 1 .318-.093c.027 0 .116.003.156.042l.785.784c.032.031.016.248-.133.486l-.772 1.285-.254.424.224.44c.158.307.278.596.367.882l.154.492.502.111 1.426.316.017.005.018.002c.183.035.371.202.371.298L17 9.6zM9 5C6.793 5 5 6.794 5 9.001A4.003 4.003 0 0 0 9 13c2.205 0 4-1.793 4-3.999A4.005 4.005 0 0 0 9 5zM9 12A3.005 3.005 0 0 1 6 9c0-1.654 1.347-3 3.001-3A3.003 3.003 0 0 1 12 9c0 1.653-1.345 3-2.999 3z"/>
</svg>
