<svg xmlns="http://www.w3.org/2000/svg" width="18" height="18" viewBox="0 0 18 18">
    <path fill="#0067B1" fill-rule="nonzero" d="M8 13h10v2H8v-2zM0 8h10v2H0V8zm8-5h10v2H8V3zm-5.555 8.448C1.111 11.448 0 12.482 0 13.724 0 14.966 1.111 16 2.445 16c1.334 0 2.445-1.034 2.445-2.276-.002-1.242-1.113-2.276-2.445-2.276zm0 3.345c-.63 0-1.149-.482-1.149-1.07 0-.585.518-1.069 1.149-1.069.63 0 1.149.483 1.149 1.07-.002.586-.52 1.07-1.149 1.07zm13.11-8.033c-1.334 0-2.445 1.034-2.445 2.276 0 1.241 1.111 2.276 2.445 2.276 1.334 0 2.445-1.035 2.445-2.276 0-1.242-1.111-2.276-2.445-2.276zm0 3.344c-.63 0-1.149-.483-1.149-1.07 0-.586.518-1.07 1.149-1.07.63 0 1.149.483 1.149 1.07 0 .587-.52 1.07-1.149 1.07zM2.445 6.552c1.334 0 2.445-1.034 2.445-2.276C4.89 3.034 3.779 2 2.445 2 1.111 2 0 3.034 0 4.276c0 1.242 1.111 2.276 2.445 2.276zm0-3.344c.63 0 1.149.482 1.149 1.07 0 .585-.518 1.069-1.149 1.069-.63 0-1.149-.482-1.149-1.07 0-.587.52-1.069 1.149-1.069z"/>
</svg>
