<svg xmlns="http://www.w3.org/2000/svg" xmlns:xlink="http://www.w3.org/1999/xlink" width="18" height="18" viewBox="0 0 18 18">
    <defs>
        <path id="a" d="M0 0h18v18H0z"/>
    </defs>
    <g fill="none" fill-rule="evenodd">
        <mask id="b" fill="#fff">
            <use xlink:href="#a"/>
        </mask>
        <path fill="#333" d="M0 36c-9.941 0-18-8.059-18-18S-9.941 0 0 0s18 8.059 18 18S9.941 36 0 36zm0-2c8.837 0 16-7.163 16-16S8.837 2 0 2s-16 7.163-16 16 7.163 16 16 16zm0-2c-7.732 0-14-6.268-14-14S-7.732 4 0 4s14 6.268 14 14S7.732 32 0 32zm0-2c6.627 0 12-5.373 12-12S6.627 6 0 6s-12 5.373-12 12 5.373 12 12 12zm0-2c-5.523 0-10-4.477-10-10S-5.523 8 0 8s10 4.477 10 10S5.523 28 0 28zm0-2a8 8 0 1 0 0-16 8 8 0 0 0 0 16zm0-2a6 6 0 1 1 0-12 6 6 0 0 1 0 12zm0-2a4 4 0 1 0 0-8 4 4 0 0 0 0 8zm0-2a2 2 0 1 1 0-4 2 2 0 0 1 0 4z" mask="url(#b)"/>
    </g>
</svg>
