<svg xmlns="http://www.w3.org/2000/svg" width="18" height="18" viewBox="0 0 18 18">
    <path fill="#333" fill-rule="nonzero" d="M1.58 5.002a8.003 8.003 0 0 1 14.84 0L16.5 5A1.5 1.5 0 0 1 18 6.5v3a1.5 1.5 0 0 1-3 0v-3c0-.442.191-.84.496-1.114a7.002 7.002 0 1 0-12.991 0C2.808 5.66 3 6.058 3 6.5v3c0 .442-.191.84-.496 1.114a7.016 7.016 0 0 0 4.688 4.15A1.5 1.5 0 0 1 8.5 14h1a1.5 1.5 0 0 1 0 3h-1a1.5 1.5 0 0 1-1.479-1.247 8.018 8.018 0 0 1-5.44-4.755A1.5 1.5 0 0 1 0 9.5l-.001-3A1.5 1.5 0 0 1 1.5 5c.027 0 .054 0 .08.002zm7.441 7.975C6.248 12.977 4 10.743 4 7.988S6.248 3 9.021 3c2.773 0 5.022 2.233 5.022 4.988 0 2.755-2.249 4.989-5.022 4.989zM9 12.022c2.253 0 4.08-1.796 4.08-4.011S11.253 4 9 4 4.92 5.796 4.92 8.011s1.827 4.01 4.08 4.01z"/>
</svg>
