<svg xmlns="http://www.w3.org/2000/svg" xmlns:xlink="http://www.w3.org/1999/xlink" width="22" height="22" viewBox="0 0 22 22">
    <defs>
        <path id="a" d="M9.961 6.111c.122-.425.245-.638.245-.956v-.213c.122-.531.122-.956 0-1.063v-.106l-.123-.106s0 .106-.122.106c-.244.638-.244 1.382 0 2.338zM7.236 15.89c-.261.129-.522.257-.652.386-.913.772-1.565 1.672-1.695 2.058.782-.128 1.564-.9 2.347-2.444zM17 13.933c-.111-.122-.556-.489-2.111-.489h-.222v.123c.777.366 1.555.61 2.11.61h.334v-.121s-.111 0-.111-.123zM19.556 0H2.444A2.452 2.452 0 0 0 0 2.444v17.112C0 20.9 1.1 22 2.444 22h17.112C20.9 22 22 20.9 22 19.556V2.444C22 1.1 20.9 0 19.556 0zm-.509 14.194a2.695 2.695 0 0 1-1.144.236c-1.017 0-2.542-.236-3.813-.828-2.161.237-3.814.473-5.085.946-.127 0-.127 0-.254.119-1.525 2.484-2.796 3.666-3.813 3.666-.254 0-.382 0-.509-.118l-.635-.355v-.118c-.127-.237-.127-.355-.127-.591.127-.592.89-1.656 2.415-2.484.254-.119.635-.355 1.144-.592.381-.591.762-1.3 1.27-2.129.636-1.183 1.018-2.365 1.4-3.43-.51-1.42-.764-2.247-.255-3.903.127-.473.508-.946 1.017-.946h.254c.254 0 .508.118.763.236.89.828.508 2.72 0 4.258v.119c.508 1.3 1.27 2.365 2.033 3.075.382.236.636.473 1.144.71.636 0 1.144-.119 1.653-.119 1.525 0 2.542.237 2.923.828.128.237.128.473.128.71-.128.118-.255.473-.509.71zM10.79 9.778c-.279.978-.838 2.095-1.396 3.352-.28.559-.56.978-.838 1.537h.279c1.816-.699 3.492-1.118 4.61-1.257-.28-.14-.42-.28-.56-.42-.698-.838-1.536-1.955-2.095-3.212z"/>
    </defs>
    <use fill="#0067B1" fill-rule="evenodd" xlink:href="#a"/>
</svg>
