<svg xmlns="http://www.w3.org/2000/svg" width="21" height="20" viewBox="0 0 21 20">
    <path fill="#555" fill-rule="nonzero" d="M11.562 1.25h-2.5v1.875a.312.312 0 1 1-.625 0V1.25H6.249v1.875a.625.625 0 1 1-1.25 0V0h11.25v3.125a.625.625 0 1 1-1.25 0V1.25h-2.812v1.875a.312.312 0 1 1-.625 0V1.25zm3.437 15.625V11.25H6.25v7.5h6.875v-1.875H15zM5 13.75H3.124a2.5 2.5 0 0 1-2.5-2.5V7.5a2.5 2.5 0 0 1 2.5-2.5h15a2.5 2.5 0 0 1 2.5 2.5v3.75a2.5 2.5 0 0 1-2.5 2.5H16.25v4.01L14.01 20h-9.01v-6.25zm0-1.25V10h11.25v2.5h1.875c.69 0 1.25-.56 1.25-1.25V7.5c0-.69-.56-1.25-1.25-1.25h-15c-.69 0-1.25.56-1.25 1.25v3.75c0 .69.56 1.25 1.25 1.25H5zm3.125.938a.312.312 0 1 1 0-.625h5a.312.312 0 1 1 0 .625h-5zm0 1.875a.312.312 0 1 1 0-.625h5a.312.312 0 1 1 0 .625h-5zM15 8.75V7.5h1.25v1.25H15z"/>
</svg>
