<svg xmlns="http://www.w3.org/2000/svg" width="12" height="18" viewBox="0 0 12 18">
    <g fill="none" fill-rule="nonzero">
        <path fill="#EDD8B4" d="M5.656.257c.315-.002.62.114.854.324l3.86 3.5c.393.384.624.904.644 1.453v10.21a1.21 1.21 0 0 1-1.206 1.213H1.493a1.21 1.21 0 0 1-1.209-1.209V5.53c.02-.55.252-1.07.647-1.453l3.875-3.5c.234-.21.538-.325.853-.323l-.003.003z"/>
        <path fill="#DFA240" d="M5.656.257c.315-.002.62.114.854.324l3.86 3.5c.393.384.624.904.644 1.453v11.21a1.21 1.21 0 0 1-1.206 1.213H1.493a1.21 1.21 0 0 1-1.209-1.209V5.53c.02-.55.252-1.07.647-1.453l3.875-3.5c.234-.21.538-.325.853-.323l-.003.003zM1.503 16.744l8.305-.011-.011-11.2a.971.971 0 0 0-.243-.55l-3.86-3.5a.161.161 0 0 0-.072 0l-3.876 3.5a.964.964 0 0 0-.243.548v11.213z"/>
    </g>
</svg>
