<svg xmlns="http://www.w3.org/2000/svg" xmlns:xlink="http://www.w3.org/1999/xlink" width="555" height="315" viewBox="0 0 555 315">
    <defs>
        <path id="a" d="M9.96 7h1v268h-1z"/>
        <mask id="e" width="1" height="268" x="0" y="0" fill="#fff">
            <use xlink:href="#a"/>
        </mask>
        <path id="b" d="M6.974 7h1v268h-1z"/>
        <mask id="f" width="1" height="268" x="0" y="0" fill="#fff">
            <use xlink:href="#b"/>
        </mask>
        <path id="c" d="M6.974 7h1v268h-1z"/>
        <mask id="g" width="1" height="268" x="0" y="0" fill="#fff">
            <use xlink:href="#c"/>
        </mask>
        <path id="d" d="M4.987 7h1v268h-1z"/>
        <mask id="h" width="1" height="268" x="0" y="0" fill="#fff">
            <use xlink:href="#d"/>
        </mask>
    </defs>
    <g fill="none" fill-rule="evenodd">
        <g fill="#E6EBF1">
            <path d="M4.649 274h543.053v1H4.649zM4.649 194h543.053v1H4.649zM4.649 114h543.053v1H4.649zM4.649 34h543.053v1H4.649z"/>
        </g>
        <g transform="translate(537.08)">
            <text fill="#485465" font-family="SFUIText-Regular, SF UI Text" font-size="10" letter-spacing=".12">
                <tspan x="1.279" y="288">120</tspan>
            </text>
            <use stroke="#32325D" stroke-dasharray="8,8,8,8" stroke-width="2" mask="url(#e)" xlink:href="#a"/>
            <circle cx="3.5" cy="3.5" r="3.5" fill="#32325D" transform="translate(6.974)"/>
        </g>
        <g transform="translate(360.594)">
            <text fill="#485465" font-family="SFUIText-Regular, SF UI Text" font-size="10" letter-spacing=".12">
                <tspan x=".849" y="288">60</tspan>
            </text>
            <use stroke="#32325D" stroke-dasharray="8,8,8,8" stroke-width="2" mask="url(#f)" xlink:href="#b"/>
            <circle cx="3.5" cy="3.5" r="3.5" fill="#32325D" transform="translate(3.987)"/>
        </g>
        <g transform="translate(179.135)">
            <text fill="#485465" font-family="SFUIText-Regular, SF UI Text" font-size="10" letter-spacing=".12">
                <tspan x=".901" y="288">30</tspan>
            </text>
            <use stroke="#32325D" stroke-dasharray="8,8,8,8" stroke-width="2" mask="url(#g)" xlink:href="#c"/>
            <circle cx="3.5" cy="3.5" r="3.5" fill="#32325D" transform="translate(3.987)"/>
        </g>
        <g transform="translate(-1)">
            <text fill="#485465" font-family="SFUIText-Regular, SF UI Text" font-size="10" letter-spacing=".12">
                <tspan x=".581" y="288">0</tspan>
            </text>
            <use stroke="#32325D" stroke-dasharray="8,8,8,8" stroke-width="2" mask="url(#h)" xlink:href="#d"/>
            <circle cx="3.5" cy="3.5" r="3.5" fill="#32325D" transform="translate(2)"/>
        </g>
        <g fill="#485465" font-family="OpenSans-Bold, Open Sans" font-size="12" font-weight="bold" letter-spacing=".144">
            <text transform="translate(261.553 299)">
                <tspan x=".502" y="13">Days</tspan>
            </text>
        </g>
    </g>
</svg>
