<svg xmlns="http://www.w3.org/2000/svg" width="14" height="23" viewBox="0 0 14 23">
    <g fill="none" fill-rule="nonzero">
        <path fill="#0067B1" d="M6.911.309a1.463 1.463 0 0 0-.984.373L1.481 4.709a2.464 2.464 0 0 0-.742 1.674V21.6A1.394 1.394 0 0 0 2.132 23h9.577a1.394 1.394 0 0 0 1.391-1.4V6.38a2.456 2.456 0 0 0-.745-1.674L7.894.68a1.459 1.459 0 0 0-.982-.371h-.001z"/>
        <path fill="#6CCEE6" d="M6.911.309a1.463 1.463 0 0 0-.984.373L1.481 4.709a2.464 2.464 0 0 0-.742 1.674V21.6A1.394 1.394 0 0 0 2.132 23h9.577a1.394 1.394 0 0 0 1.391-1.4V6.38a2.456 2.456 0 0 0-.745-1.674L7.894.68a1.459 1.459 0 0 0-.982-.371h-.001zM11.7 21.6l-9.566-.012.012-15.208c.024-.235.122-.457.28-.633L6.872 1.72a.185.185 0 0 1 .082 0l4.464 4.029c.158.175.256.396.28.631L11.7 21.6z"/>
    </g>
</svg>
