<?xml version="1.0" encoding="UTF-8"?>
<svg width="40px" height="40px" viewBox="0 0 40 40" version="1.1" xmlns="http://www.w3.org/2000/svg" xmlns:xlink="http://www.w3.org/1999/xlink">
    <!-- Generator: Sketch 55.2 (78181) - https://sketchapp.com -->
    <title>icons/system/success</title>
    <desc>Created with Sketch.</desc>
    <g id="Page-1" stroke="none" stroke-width="1" fill="none" fill-rule="evenodd">
        <g id="icons/system/success" transform="translate(-5.000000, -5.000000)" fill="#5CC971">
            <g id="icons8-checked-(1)" transform="translate(5.833333, 5.833333)">
                <path d="M19.1666667,0 C8.5975,0 0,8.5975 0,19.1666667 C0,29.7358333 8.5975,38.3333333 19.1666667,38.3333333 C29.7358333,38.3333333 38.3333333,29.7358333 38.3333333,19.1666667 C38.3333333,15.3666667 37.2169008,11.82444 35.3027342,8.84277333 L34.1617842,10.19043 C35.7409508,12.8187633 36.6666667,15.8833333 36.6666667,19.1666667 C36.6666667,28.8158333 28.8158333,36.6666667 19.1666667,36.6666667 C9.5175,36.6666667 1.66666667,28.8158333 1.66666667,19.1666667 C1.66666667,9.5175 9.5175,1.66666667 19.1666667,1.66666667 C23.7025,1.66666667 27.828255,3.41647133 30.940755,6.258138 L32.03125,4.97070317 C28.6270833,1.88320308 24.1125,0 19.1666667,0 Z M34.3636067,4.79492183 L18.2617183,23.7955733 L11.484375,17.4739583 L10.3483075,18.6930342 L18.40332,26.206055 L35.6363933,5.87239583 L34.3636067,4.79492183 Z" id="Shape" fill-rule="nonzero"></path>
            </g>
        </g>
    </g>
</svg>