<svg xmlns="http://www.w3.org/2000/svg" xmlns:xlink="http://www.w3.org/1999/xlink" width="24" height="24" viewBox="0 0 24 24">
    <defs>
        <path id="a" d="M12.76 8.14v4.38l3.74 2.22-.62 1.06-4.38-2.66v-5h1.26zM12.32 19c1.2 0 2.32-.307 3.36-.92a6.477 6.477 0 0 0 2.4-2.4c.613-1.04.92-2.16.92-3.36 0-1.2-.307-2.32-.92-3.36a6.477 6.477 0 0 0-2.4-2.4 6.501 6.501 0 0 0-3.36-.92c-1.2 0-2.32.307-3.36.92a6.477 6.477 0 0 0-2.4 2.4 6.501 6.501 0 0 0-.92 3.36c0 1.2.307 2.32.92 3.36a6.477 6.477 0 0 0 2.4 2.4c1.04.613 2.16.92 3.36.92zm0-15c1.52 0 2.927.38 4.22 1.14A7.886 7.886 0 0 1 19.5 8.1a8.182 8.182 0 0 1 1.14 4.22c0 1.52-.38 2.927-1.14 4.22a7.886 7.886 0 0 1-2.96 2.96 8.182 8.182 0 0 1-4.22 1.14c-1.52 0-2.927-.38-4.22-1.14a8.035 8.035 0 0 1-2.96-2.98A8.146 8.146 0 0 1 4 12.32c0-1.507.38-2.907 1.14-4.2a8.188 8.188 0 0 1 2.98-2.98A8.146 8.146 0 0 1 12.32 4z"/>
    </defs>
    <g fill="none" fill-rule="evenodd">
        <mask id="b" fill="#fff">
            <use xlink:href="#a"/>
        </mask>
        <use fill="#424b57" xlink:href="#a"/>
        <g fill="#424b57" mask="url(#b)">
            <path d="M0 0h24v24H0z"/>
        </g>
    </g>
</svg>
